<svg width="412" height="519" viewBox="0 0 412 519" fill="none" xmlns="http://www.w3.org/2000/svg">
  <g opacity="0.3" filter="url(#filter0_f)">
    <path d="M354.028 514.114C351.432 514.19 348.899 513.534 346.704 512.219C340.02 508.208 330.144 501.586 321.26 492.916C309.985 481.915 303.507 470.732 302.091 459.752L302.068 459.579L301.793 412.726C301.793 403.467 307.827 395.949 319.157 391.011C328.516 386.93 340.922 384.909 354.028 385.288C366.981 385.664 378.967 388.338 387.839 392.797C398.385 398.096 403.919 405.542 403.919 414.371L403.669 459.14L403.647 459.304C402.353 469.819 396.392 480.688 385.858 491.68C377.408 500.495 367.86 507.482 361.302 511.81C359.134 513.241 356.619 514.038 354.028 514.114Z" fill="url(#paint0_linear)"/>
    <path d="M356.598 514.114C354.035 514.19 351.536 513.534 349.371 512.219C342.777 508.208 333.031 501.586 324.263 492.916C313.138 481.915 306.746 470.732 305.348 459.752L305.326 459.579L305.055 412.726C305.055 403.466 311.01 395.949 322.188 391.011C331.425 386.929 343.666 384.909 356.598 385.288C369.38 385.664 381.208 388.338 389.962 392.797C400.368 398.096 405.828 405.541 405.828 414.371L405.58 459.14L405.561 459.304C404.282 469.819 398.401 480.687 388.007 491.68C379.668 500.495 370.247 507.481 363.777 511.81C361.637 513.241 359.156 514.038 356.598 514.114Z" fill="#E31337" fill-opacity="0.2"/>
    <path d="M308.145 412.759L308.418 459.376C311.484 483.161 339.411 502.418 351.575 509.735C355.059 511.831 359.513 511.706 362.974 509.428C374.883 501.584 401.28 481.837 404.102 458.969L404.352 414.323C404.352 381.2 308.145 378.173 308.145 412.759Z" fill="#E9657D"/>
    <path d="M357.288 502.55C357.064 502.556 356.728 502.519 356.386 502.312C351.379 499.277 341.67 492.919 333.224 484.615C324.102 475.645 318.841 466.926 317.634 458.735L317.367 412.89C317.377 408.491 320.856 404.727 327.676 401.714C335.289 398.35 346.1 396.587 357.288 396.852C368.365 397.114 378.861 399.346 386.132 402.959C392.565 406.153 395.816 409.919 395.827 414.166L395.577 458.424C394.451 466.351 389.512 474.894 380.843 483.877C372.691 492.322 363.168 499.016 358.19 502.272C357.848 502.492 357.512 502.545 357.288 502.55Z" fill="url(#paint1_linear)"/>
    <path d="M356.145 499.418C351.088 496.299 342.093 490.278 334.248 482.549C325.675 474.104 320.713 466 319.547 458.502L319.281 412.923C319.29 409.778 322.177 406.894 327.843 404.381C335.054 401.185 345.386 399.501 356.145 399.743C366.799 399.983 376.843 402.09 383.744 405.506C389.105 408.161 391.82 411.058 391.827 414.126L391.578 458.222C390.484 465.498 385.805 473.454 377.621 481.915C370.023 489.77 361.181 496.087 356.145 499.418Z" fill="#F4F6F9"/>
    <path d="M374.243 439.742L340.185 440.045C337.568 440.068 335.435 442.111 335.435 444.606V466.448C335.435 468.928 337.561 470.852 340.169 470.744L374.107 469.353C376.52 469.255 378.479 467.254 378.491 464.884L378.599 444.019C378.609 441.635 376.665 439.721 374.243 439.742Z" fill="url(#paint2_linear)"/>
    <path d="M361.873 452.266C361.88 449.854 359.812 447.947 357.286 448.107C355.049 448.248 353.195 450.055 353.07 452.226C352.973 453.907 353.882 455.365 355.266 456.106C355.854 456.42 356.145 457.079 356.029 457.731L355.044 463.25C354.919 463.951 355.476 464.57 356.208 464.544L358.701 464.455C359.43 464.431 359.983 463.777 359.863 463.086L358.91 457.62C358.796 456.968 359.132 456.321 359.722 455.965C361.008 455.193 361.869 453.818 361.873 452.266Z" fill="url(#paint3_linear)"/>
    <path d="M373.764 437.575C372.74 437.582 371.914 436.768 371.918 435.757L371.939 430.999C371.96 426.221 368.013 422.29 363.093 422.241L351.977 422.13C346.887 422.078 342.7 426.052 342.697 430.982L342.693 435.89C342.692 436.932 341.806 437.783 340.712 437.79C339.614 437.797 338.723 436.955 338.723 435.909L338.725 430.98C338.728 423.935 344.722 418.277 351.986 418.378L363.108 418.533C370.095 418.63 375.675 424.227 375.643 431.001L375.62 435.74C375.613 436.748 374.784 437.568 373.764 437.575Z" fill="#E85C75"/>
  </g>
  <g opacity="0.9">
    <path d="M206.947 509.941C196.686 510.24 186.676 507.648 178.003 502.451C151.586 486.6 112.556 460.43 77.4451 426.165C32.8881 382.688 7.28566 338.494 1.68906 295.101L1.5986 294.418L0.512695 109.252C0.512695 72.6594 24.3609 42.9504 69.1338 23.4347C106.124 7.30515 155.15 -0.6795 206.947 0.818492C258.138 2.30255 305.507 12.8721 340.569 30.4927C382.245 51.4367 404.116 80.8601 404.116 115.753L403.127 292.683L403.044 293.331C397.928 334.885 374.372 377.839 332.738 421.281C299.346 456.118 261.611 483.729 235.695 500.834C227.127 506.492 217.186 509.641 206.947 509.941Z" fill="url(#paint4_linear)"/>
    <path d="M217.103 509.94C206.975 510.24 197.097 507.648 188.542 502.45C162.48 486.6 123.965 460.43 89.3135 426.164C45.3481 382.688 20.0868 338.493 14.5598 295.1L14.4763 294.418L13.4043 109.252C13.4043 72.659 36.9393 42.95 81.1135 23.4343C117.617 7.30471 165.995 -0.679939 217.103 0.818053C267.618 2.30211 314.361 12.8717 348.957 30.4922C390.082 51.4363 411.661 80.8596 411.661 115.752L410.68 292.683L410.603 293.331C405.55 334.884 382.307 377.838 341.23 421.28C308.277 456.117 271.043 483.729 245.476 500.834C237.018 506.492 227.21 509.641 217.103 509.94Z" fill="#E31337" fill-opacity="0.2"/>
    <path d="M25.6133 109.384L26.6922 293.616C38.8112 387.613 149.177 463.718 197.249 492.633C211.018 500.917 228.623 500.423 242.301 491.421C289.364 460.423 393.688 382.381 404.839 292.007L405.828 115.564C405.828 -15.3396 25.6133 -27.3026 25.6133 109.384Z" fill="#E9657D"/>
    <path d="M219.831 464.241C218.947 464.262 217.617 464.116 216.267 463.301C196.477 451.303 158.108 426.178 124.73 393.362C88.6797 357.912 67.8873 323.451 63.1191 291.08L62.061 109.9C62.1028 92.5162 75.8507 77.6408 102.803 65.7335C132.889 52.4397 175.615 45.4723 219.831 46.5174C263.608 47.5555 305.089 56.3763 333.824 70.6525C359.245 83.2774 372.095 98.1598 372.137 114.944L371.148 289.854C366.7 321.18 347.182 354.944 312.92 390.442C280.705 423.816 243.067 450.272 223.395 463.14C222.045 464.011 220.715 464.22 219.831 464.241Z" fill="url(#paint5_linear)"/>
    <path d="M215.313 451.86C195.328 439.535 159.779 415.741 128.775 385.196C94.8957 351.822 75.2867 319.793 70.6786 290.16L69.6274 110.032C69.6622 97.602 81.0712 86.2034 103.465 76.2748C131.963 63.6429 172.796 56.989 215.313 57.9436C257.42 58.8911 297.111 67.2172 324.384 80.72C345.574 91.2129 356.3 102.66 356.328 114.784L355.347 289.052C351.024 317.807 332.529 349.251 300.188 382.687C270.159 413.734 235.215 438.698 215.313 451.86Z" fill="#F4F6F9"/>
    <path d="M286.837 216.021L152.24 217.219C141.896 217.31 133.466 225.385 133.466 235.244V321.563C133.466 331.366 141.868 338.968 152.177 338.543L286.301 333.045C295.837 332.655 303.578 324.747 303.627 315.383L304.051 232.924C304.093 223.504 296.408 215.937 286.837 216.021Z" fill="url(#paint6_linear)"/>
    <path d="M237.95 265.517C237.978 255.986 229.806 248.447 219.824 249.081C210.983 249.638 203.653 256.78 203.159 265.357C202.776 272.004 206.368 277.766 211.84 280.692C214.164 281.932 215.313 284.538 214.854 287.116L210.962 308.924C210.468 311.697 212.668 314.143 215.564 314.038L225.413 313.69C228.295 313.592 230.481 311.007 230.008 308.276L226.242 286.677C225.789 284.099 227.119 281.542 229.451 280.135C234.532 277.083 237.936 271.648 237.95 265.517Z" fill="url(#paint7_linear)"/>
    <path d="M284.944 207.458C280.899 207.486 277.635 204.267 277.649 200.274L277.732 181.469C277.816 162.588 262.216 147.05 242.774 146.855L198.844 146.416C178.726 146.214 162.18 161.919 162.166 181.4L162.152 200.797C162.145 204.915 158.644 208.28 154.321 208.308C149.985 208.336 146.462 205.005 146.462 200.874L146.469 181.393C146.483 153.551 170.171 131.193 198.878 131.59L242.83 132.203C270.444 132.586 292.496 154.708 292.371 181.476L292.281 200.205C292.253 204.19 288.974 207.43 284.944 207.458Z" fill="#E85C75"/>
  </g>
  <defs>
    <filter id="filter0_f" x="297.793" y="381.243" width="112.035" height="136.877" filterUnits="userSpaceOnUse" color-interpolation-filters="sRGB">
      <feFlood flood-opacity="0" result="BackgroundImageFix"/>
      <feBlend mode="normal" in="SourceGraphic" in2="BackgroundImageFix" result="shape"/>
      <feGaussianBlur stdDeviation="2" result="effect1_foregroundBlur"/>
    </filter>
    <linearGradient id="paint0_linear" x1="412.758" y1="381.704" x2="383.298" y2="409.994" gradientUnits="userSpaceOnUse">
      <stop stop-color="#2F1F45"/>
      <stop offset="1" stop-color="#8A3C74"/>
    </linearGradient>
    <linearGradient id="paint1_linear" x1="317.367" y1="449.688" x2="395.826" y2="449.688" gradientUnits="userSpaceOnUse">
      <stop stop-color="#2F1F45"/>
      <stop offset="1" stop-color="#783C74"/>
    </linearGradient>
    <linearGradient id="paint2_linear" x1="381.587" y1="409.171" x2="349.272" y2="468.85" gradientUnits="userSpaceOnUse">
      <stop stop-color="#E31337"/>
      <stop offset="1" stop-color="#E31337" stop-opacity="0.5"/>
    </linearGradient>
    <linearGradient id="paint3_linear" x1="352.712" y1="448.503" x2="363.948" y2="465.903" gradientUnits="userSpaceOnUse">
      <stop stop-color="#2F1F45"/>
      <stop offset="1" stop-color="#783C74"/>
    </linearGradient>
    <linearGradient id="paint4_linear" x1="439.05" y1="-13.3469" x2="322.622" y2="98.4566" gradientUnits="userSpaceOnUse">
      <stop stop-color="#2F1F45"/>
      <stop offset="1" stop-color="#8A3C74"/>
    </linearGradient>
    <linearGradient id="paint5_linear" x1="62.0604" y1="255.329" x2="372.134" y2="255.329" gradientUnits="userSpaceOnUse">
      <stop stop-color="#2F1F45"/>
      <stop offset="1" stop-color="#783C74"/>
    </linearGradient>
    <linearGradient id="paint6_linear" x1="315.862" y1="95.2024" x2="188.151" y2="331.055" gradientUnits="userSpaceOnUse">
      <stop stop-color="#E31337"/>
      <stop offset="1" stop-color="#E31337" stop-opacity="0.5"/>
    </linearGradient>
    <linearGradient id="paint7_linear" x1="201.748" y1="250.647" x2="246.153" y2="319.411" gradientUnits="userSpaceOnUse">
      <stop stop-color="#2F1F45"/>
      <stop offset="1" stop-color="#783C74"/>
    </linearGradient>
  </defs>
</svg>
