<svg width="492" height="482" viewBox="0 0 243 239" fill="none" xmlns="http://www.w3.org/2000/svg">
  <path d="M242.621 160.539H149.79V106.854H242.621V160.539ZM150.356 159.973H242.055V107.42H150.356V159.973Z" fill="#E0E0E0"/>
  <path d="M223.472 135.479H162.213V137.275H223.472V135.479Z" fill="#F0F0F0"/>
  <path d="M227.693 142.17H162.213V144.129H227.693V142.17Z" fill="#F0F0F0"/>
  <path d="M227.693 148.938H162.213V150.897H227.693V148.938Z" fill="#F0F0F0"/>
  <path d="M183.623 125.76H162.213V130.418H183.623V125.76Z" fill="#F0F0F0"/>
  <path d="M242.339 107.137H150.073V115.684H242.339V107.137Z" fill="#E0E0E0"/>
  <path d="M238.328 111.617C239.912 109.962 241.101 108.53 240.983 108.417C240.865 108.304 239.486 109.554 237.901 111.209C236.317 112.863 235.129 114.295 235.247 114.408C235.364 114.521 236.744 113.271 238.328 111.617Z" fill="white"/>
  <path d="M240.979 114.397C241.097 114.284 239.908 112.852 238.324 111.197C236.74 109.543 235.361 108.293 235.243 108.406C235.125 108.518 236.313 109.951 237.898 111.605C239.482 113.26 240.861 114.509 240.979 114.397Z" fill="white"/>
  <path d="M128.377 0.834473H36.1113V53.9531H128.377V0.834473Z" fill="#E6E6E6"/>
  <path d="M109.51 29.1765H48.2505V30.9716H109.51V29.1765Z" fill="#F0F0F0"/>
  <path d="M113.731 35.8672H48.2505V37.8262H113.731V35.8672Z" fill="#F0F0F0"/>
  <path d="M113.731 42.6377H48.2505V44.5967H113.731V42.6377Z" fill="#F0F0F0"/>
  <path d="M69.6601 19.4573H48.2505V24.115H69.6601V19.4573Z" fill="#F0F0F0"/>
  <path d="M128.377 0.834473H36.1113V9.37952H128.377V0.834473Z" fill="#E0E0E0"/>
  <path d="M124.048 5.27379C125.632 3.61941 126.821 2.18694 126.703 2.07428C126.585 1.96162 125.205 3.21143 123.621 4.86581C122.037 6.52019 120.848 7.95266 120.966 8.06532C121.084 8.17798 122.464 6.92817 124.048 5.27379Z" fill="white"/>
  <path d="M126.695 8.05487C126.813 7.94221 125.624 6.50974 124.04 4.85536C122.456 3.20098 121.076 1.95117 120.959 2.06383C120.841 2.17649 122.029 3.60896 123.613 5.26334C125.197 6.91772 126.577 8.16753 126.695 8.05487Z" fill="white"/>
  <path d="M93.431 99.5144H0.599609V45.8281H93.431V99.5144ZM1.16772 98.9468H92.867V46.3937H1.16772V98.9468Z" fill="#E0E0E0"/>
  <path d="M74.2813 74.4531H13.022V76.2482H74.2813V74.4531Z" fill="#F0F0F0"/>
  <path d="M78.5021 81.1455H13.022V83.1045H78.5021V81.1455Z" fill="#F0F0F0"/>
  <path d="M78.5021 87.9141H13.022V89.8731H78.5021V87.9141Z" fill="#F0F0F0"/>
  <path d="M34.4317 64.7339H13.022V69.3917H34.4317V64.7339Z" fill="#F0F0F0"/>
  <path d="M93.1482 46.1108H0.882812V54.6579H93.1482V46.1108Z" fill="#E0E0E0"/>
  <path d="M200.568 111.816H91.624V209.262H200.568V111.816Z" fill="#E6E6E6"/>
  <path d="M97.1001 81.1191H11.7607V169.709H97.1001V81.1191Z" fill="#F0F0F0"/>
  <path d="M97.1001 81.1191H11.7607V90.7707H97.1001V81.1191Z" fill="#E0E0E0"/>
  <path d="M17.0176 87.7174C18.0076 87.7174 18.8101 86.8798 18.8101 85.8465C18.8101 84.8132 18.0076 83.9756 17.0176 83.9756C16.0276 83.9756 15.2251 84.8132 15.2251 85.8465C15.2251 86.8798 16.0276 87.7174 17.0176 87.7174Z" fill="white"/>
  <path d="M24.2842 87.7174C25.2742 87.7174 26.0767 86.8798 26.0767 85.8465C26.0767 84.8132 25.2742 83.9756 24.2842 83.9756C23.2942 83.9756 22.4917 84.8132 22.4917 85.8465C22.4917 86.8798 23.2942 87.7174 24.2842 87.7174Z" fill="white"/>
  <path d="M31.5523 87.7174C32.5423 87.7174 33.3448 86.8798 33.3448 85.8465C33.3448 84.8132 32.5423 83.9756 31.5523 83.9756C30.5623 83.9756 29.7598 84.8132 29.7598 85.8465C29.7598 86.8798 30.5623 87.7174 31.5523 87.7174Z" fill="white"/>
  <path d="M230.44 20.2095H121.496V128.697H230.44V20.2095Z" fill="#F0F0F0"/>
  <path d="M230.44 20.2095H121.496V32.9164H230.44V20.2095Z" fill="#E0E0E0"/>
  <path d="M128.414 28.8959C129.717 28.8959 130.773 27.7932 130.773 26.4328C130.773 25.0725 129.717 23.9697 128.414 23.9697C127.112 23.9697 126.056 25.0725 126.056 26.4328C126.056 27.7932 127.112 28.8959 128.414 28.8959Z" fill="white"/>
  <path d="M139.719 28.1698C140.641 27.2495 140.607 25.7237 139.644 24.7618C138.681 23.7999 137.154 23.7662 136.233 24.6865C135.312 25.6067 135.346 27.1325 136.309 28.0944C137.271 29.0563 138.798 29.0901 139.719 28.1698Z" fill="white"/>
  <path d="M147.551 28.8959C148.854 28.8959 149.91 27.7932 149.91 26.4328C149.91 25.0725 148.854 23.9697 147.551 23.9697C146.248 23.9697 145.192 25.0725 145.192 26.4328C145.192 27.7932 146.248 28.8959 147.551 28.8959Z" fill="white"/>
  <path d="M206.905 238.044C206.905 238.126 167.566 238.192 119.051 238.192C70.5197 238.192 31.189 238.126 31.189 238.044C31.189 237.963 70.5197 237.897 119.051 237.897C167.566 237.897 206.905 237.965 206.905 238.044Z" fill="#263238"/>
  <path d="M168.571 168.752C159.819 162.643 157.834 151.303 158.181 141.111C158.238 139.41 158.051 137.615 158.861 136.123C159.672 134.631 161.563 133.611 163.086 134.328C164.352 134.922 164.901 136.393 165.609 137.609C166.55 139.225 167.953 140.564 169.602 141.42C170.687 141.982 172.028 142.326 173.099 141.736C174.567 140.926 174.742 138.898 174.732 137.205C174.711 134.051 174.693 130.898 174.672 127.744C174.662 126.051 174.656 124.324 175.183 122.717C175.71 121.111 176.873 119.619 178.485 119.168C180.097 118.717 182.088 119.646 182.429 121.301C182.57 121.99 182.431 122.707 182.476 123.408C182.523 124.111 182.851 124.887 183.518 125.084C184.195 125.283 184.871 124.803 185.378 124.307C187.125 122.598 188.313 120.398 189.42 118.209C190.53 116.021 191.605 113.779 193.192 111.916C194.777 110.053 196.972 108.576 199.398 108.439C201.824 108.301 204.409 109.797 205.022 112.176C205.637 114.562 204.242 116.982 202.727 118.914C200.477 121.779 197.817 124.314 194.855 126.41C194.322 126.789 193.744 127.197 193.539 127.824C193.172 128.953 194.24 130.072 195.356 130.443C196.619 130.863 197.987 130.732 199.308 130.887C200.629 131.043 202.058 131.625 202.559 132.871C203.252 134.6 201.804 136.414 200.381 137.6C197.528 139.977 194.271 141.857 190.797 143.129C189.552 143.584 188.239 143.984 187.234 144.859C186.229 145.734 185.622 147.254 186.229 148.447C186.836 149.639 188.395 150.022 189.699 149.779C191.004 149.537 192.173 148.83 193.416 148.361C195.743 147.484 198.748 147.643 200.239 149.654C201.219 150.975 201.306 152.813 200.809 154.389C200.315 155.965 199.308 157.32 198.241 158.572C194.511 162.945 189.736 166.465 184.336 168.336C178.94 170.207 173.938 170.713 168.571 168.752Z" fill="#E8505B"/>
  <path d="M202.575 109.855C202.579 109.859 202.524 109.914 202.411 110.016C202.286 110.127 202.12 110.277 201.908 110.465C201.465 110.857 200.811 111.434 199.989 112.203C198.342 113.732 196.03 116.033 193.52 119.18C192.261 120.748 190.95 122.525 189.578 124.457C188.21 126.391 186.76 128.469 185.32 130.709C183.879 132.949 182.437 135.348 181.143 137.94C180.491 139.233 179.908 140.588 179.313 141.967C178.723 143.346 178.124 144.748 177.517 146.164C175.111 151.838 172.994 157.324 171.481 162.449C169.959 167.567 169.055 172.313 168.659 176.334C168.253 180.356 168.335 183.639 168.501 185.891C168.589 187.018 168.675 187.893 168.755 188.481C168.788 188.764 168.815 188.987 168.833 189.153C168.849 189.305 168.856 189.383 168.849 189.385C168.843 189.385 168.827 189.309 168.802 189.157C168.776 188.991 168.739 188.77 168.694 188.489C168.593 187.901 168.488 187.028 168.38 185.899C168.179 183.645 168.062 180.35 168.441 176.309C168.81 172.27 169.696 167.502 171.208 162.362C172.709 157.219 174.824 151.717 177.232 146.037C177.839 144.619 178.44 143.219 179.03 141.838C179.623 140.461 180.212 139.096 180.87 137.797C182.176 135.19 183.631 132.785 185.081 130.545C186.533 128.303 187.991 126.229 189.369 124.299C190.751 122.371 192.074 120.598 193.35 119.035C195.891 115.895 198.235 113.611 199.909 112.109C200.744 111.354 201.412 110.791 201.869 110.414C202.089 110.236 202.263 110.094 202.392 109.99C202.509 109.895 202.573 109.85 202.575 109.855Z" fill="#263238"/>
  <path d="M180.959 137.785C180.938 137.789 180.881 137.531 180.793 137.064C180.704 136.596 180.598 135.916 180.479 135.072C180.239 133.387 179.989 131.049 179.72 128.469C179.453 125.889 179.168 123.562 178.904 121.885C178.775 121.047 178.662 120.369 178.578 119.902C178.498 119.435 178.463 119.172 178.483 119.166C178.504 119.162 178.58 119.414 178.697 119.875C178.818 120.336 178.961 121.01 179.119 121.846C179.441 123.519 179.761 125.853 180.028 128.434C180.284 130.98 180.518 133.283 180.694 135.043C180.78 135.838 180.852 136.506 180.91 137.045C180.963 137.518 180.979 137.783 180.959 137.785Z" fill="#263238"/>
  <path d="M202.733 133.719C202.733 133.742 202.423 133.777 201.865 133.824C201.307 133.873 200.497 133.941 199.501 134.057C197.507 134.273 194.761 134.666 191.752 135.232C188.743 135.803 186.042 136.437 184.102 136.951C183.13 137.201 182.349 137.424 181.807 137.576C181.266 137.73 180.964 137.805 180.958 137.785C180.952 137.764 181.241 137.65 181.772 137.459C182.304 137.273 183.077 137.014 184.045 136.736C185.975 136.164 188.678 135.494 191.697 134.92C194.714 134.353 197.474 133.992 199.48 133.834C200.483 133.746 201.297 133.713 201.859 133.701C202.421 133.693 202.733 133.697 202.733 133.719Z" fill="#263238"/>
  <path d="M171.473 161.963C171.463 161.967 171.412 161.877 171.323 161.699C171.223 161.486 171.1 161.225 170.95 160.912C170.63 160.227 170.191 159.223 169.668 157.977C168.618 155.486 167.275 151.996 165.845 148.127C164.414 144.256 163.105 140.76 162.109 138.25C161.62 137.029 161.218 136.027 160.919 135.279C160.792 134.955 160.685 134.689 160.599 134.469C160.529 134.283 160.496 134.182 160.507 134.178C160.517 134.174 160.568 134.266 160.656 134.445C160.757 134.658 160.88 134.916 161.03 135.232C161.35 135.916 161.789 136.92 162.312 138.166C163.362 140.658 164.705 144.148 166.134 148.018C167.564 151.889 168.872 155.383 169.869 157.895C170.357 159.115 170.759 160.119 171.059 160.865C171.186 161.188 171.293 161.457 171.379 161.674C171.45 161.859 171.483 161.957 171.473 161.963Z" fill="#263238"/>
  <path d="M200.409 152.643C200.411 152.654 200.313 152.695 200.122 152.762C199.897 152.838 199.618 152.93 199.281 153.043C198.506 153.295 197.458 153.633 196.182 154.047C193.565 154.895 189.966 156.107 185.989 157.453C182.013 158.799 178.397 159.979 175.763 160.773C174.447 161.17 173.378 161.482 172.634 161.68C172.289 161.77 172.006 161.844 171.776 161.906C171.579 161.953 171.475 161.973 171.471 161.963C171.469 161.953 171.567 161.912 171.758 161.844C171.983 161.768 172.26 161.676 172.599 161.563C173.374 161.311 174.422 160.973 175.698 160.559C178.315 159.711 181.914 158.5 185.891 157.154C189.868 155.807 193.481 154.629 196.117 153.834C197.433 153.436 198.502 153.125 199.246 152.926C199.591 152.836 199.872 152.762 200.104 152.701C200.301 152.654 200.405 152.633 200.409 152.643Z" fill="#263238"/>
  <path d="M188.605 15.3385L185.686 16.3816L184.437 12.5721C182.136 5.54758 174.788 1.78735 168.067 4.18898C161.342 6.59266 157.747 14.2627 160.05 21.2873L161.299 25.0967L158.37 26.1438C156.091 26.9573 154.859 29.5803 155.64 31.9614L163.762 56.7482C164.554 59.1662 167.068 60.4552 169.347 59.6416L199.584 48.8343C201.897 48.0064 203.132 45.3773 202.34 42.9614L194.218 18.1746C193.435 15.7934 190.92 14.5107 188.605 15.3385ZM165.559 19.3201C164.297 15.4697 166.266 11.2648 169.954 9.94715C173.637 8.62953 177.661 10.6931 178.922 14.5434L180.171 18.3529L166.808 23.1295L165.559 19.3201ZM182.559 41.3118L184.632 47.6417C184.72 47.9101 184.567 48.1827 184.308 48.2749L181.406 49.3118C181.185 49.3917 180.9 49.2749 180.813 49.0064L178.74 42.6765C176.492 42.5823 174.406 41.0925 173.625 38.7114C172.622 35.6499 174.191 32.3016 177.132 31.2504C180.071 30.1991 183.275 31.8405 184.277 34.904C185.059 37.2872 184.282 39.7995 182.559 41.3118Z" fill="#E8505B"/>
  <path d="M185.56 16.3138C185.589 16.3896 180.15 18.4245 173.414 20.8568C166.679 23.2892 161.197 25.199 161.168 25.1232C161.141 25.0474 166.576 23.0126 173.314 20.5802C180.049 18.1478 185.531 16.236 185.56 16.3138Z" fill="#263238"/>
  <path d="M191.979 17.357C191.983 17.3549 192.006 17.4062 192.044 17.5045C192.088 17.6193 192.141 17.7668 192.209 17.9472C192.354 18.359 192.557 18.9328 192.814 19.6623C193.335 21.1767 194.075 23.3344 194.988 25.9902C195.896 28.6705 196.977 31.8549 198.175 35.3856C198.767 37.1581 199.413 39.0024 200.033 40.9471C200.32 41.9245 200.558 42.9696 200.457 44.0536C200.406 44.5905 200.261 45.1315 199.998 45.6192C199.731 46.1048 199.358 46.5311 198.927 46.8794C198.056 47.5761 197.036 47.9819 196.052 48.3466C195.063 48.7011 194.089 49.0515 193.131 49.3938C191.216 50.0782 189.37 50.738 187.61 51.3692C184.093 52.6212 180.924 53.7482 178.256 54.697C175.604 55.6294 173.453 56.3855 171.941 56.9163C171.209 57.1663 170.633 57.363 170.221 57.5064C170.036 57.5659 169.888 57.615 169.769 57.6519C169.667 57.6827 169.613 57.697 169.611 57.6929C169.609 57.6888 169.659 57.6642 169.757 57.6253C169.872 57.5802 170.017 57.5228 170.198 57.4511C170.608 57.2974 171.178 57.0823 171.902 56.8097C173.408 56.2564 175.549 55.4716 178.186 54.5023C180.848 53.5351 184.011 52.3876 187.52 51.1151C189.278 50.4798 191.124 49.8138 193.035 49.1233C193.991 48.779 194.965 48.4286 195.952 48.072C196.928 47.7093 197.92 47.3097 198.743 46.652C199.151 46.3241 199.493 45.9266 199.74 45.4798C199.982 45.029 200.117 44.5311 200.164 44.0249C200.26 43.0085 200.035 41.9921 199.754 41.029C199.143 39.1028 198.497 37.2422 197.914 35.4717C196.739 31.9328 195.679 28.7422 194.787 26.0557C193.913 23.3877 193.201 21.2217 192.703 19.6992C192.467 18.9635 192.282 18.3836 192.151 17.9656C192.094 17.7791 192.051 17.6316 192.014 17.5127C191.987 17.4123 191.975 17.359 191.979 17.357Z" fill="#263238"/>
  <path d="M176.029 9.55164C176.015 9.57623 175.728 9.40001 175.172 9.1746C174.614 8.96148 173.769 8.71353 172.698 8.6787C171.636 8.63976 170.342 8.8037 169.05 9.36722C167.764 9.92459 166.494 10.9123 165.588 12.2586C164.663 13.5988 164.257 15.15 164.257 16.5557C164.244 17.9676 164.546 19.2278 164.833 20.2586C165.132 21.2914 165.438 22.1131 165.637 22.6827C165.84 23.2524 165.951 23.568 165.93 23.5762C165.912 23.5823 165.766 23.2811 165.53 22.7237C165.296 22.1663 164.96 21.3549 164.632 20.318C164.314 19.2832 163.986 18.0086 163.984 16.5537C163.967 15.107 164.384 13.4799 165.344 12.0926C166.285 10.6971 167.604 9.68074 168.943 9.11722C170.286 8.54755 171.619 8.40206 172.711 8.46968C173.808 8.53116 174.665 8.81804 175.219 9.06804C175.494 9.20328 175.703 9.31189 175.834 9.40411C175.967 9.49222 176.035 9.5414 176.029 9.55164Z" fill="#263238"/>
  <path d="M176.288 31.6991C176.283 31.6909 176.382 31.6438 176.575 31.5556C176.765 31.4675 177.057 31.3528 177.448 31.2421C177.836 31.1212 178.334 31.0311 178.921 30.9983C179.505 30.9696 180.197 31.029 180.908 31.2933C182.356 31.8015 183.689 33.281 184.346 35.238C184.659 36.2278 184.688 37.3773 184.372 38.488C184.034 39.5945 183.415 40.656 182.52 41.5474L182.557 41.3978C183.31 43.4613 184.128 45.7072 184.981 48.0433L185.033 48.1847L184.889 48.2318C184.479 48.3691 184.038 48.5166 183.595 48.6662C182.641 48.9859 181.7 49.2994 180.777 49.6088L180.638 49.656L180.592 49.5166C179.817 47.1703 178.966 44.9572 178.349 42.8425L178.472 42.9388C177.313 42.8609 176.269 42.3753 175.441 41.74C174.608 41.0986 173.968 40.3056 173.537 39.4695C173.115 38.6314 172.901 37.74 172.936 36.9204C172.957 36.1007 173.148 35.3589 173.412 34.7339C173.941 33.4716 174.729 32.6786 175.311 32.2462C175.902 31.8118 176.288 31.6991 176.288 31.6991C176.302 31.7237 175.929 31.8671 175.361 32.3138C174.805 32.7606 174.054 33.5556 173.56 34.7954C173.066 36.0044 172.852 37.7441 173.734 39.3671C174.157 40.1683 174.78 40.9326 175.588 41.5412C176.39 42.1458 177.393 42.6007 178.482 42.6683L178.578 42.6744L178.605 42.7646C179.231 44.865 180.086 47.0679 180.867 49.4244L180.681 49.3322C181.604 49.0228 182.545 48.7072 183.499 48.3875C183.942 48.24 184.383 48.0925 184.793 47.9552L184.7 48.1457C183.853 45.8076 183.039 43.5597 182.291 41.4962L182.26 41.4122L182.328 41.3466C183.175 40.5085 183.792 39.4716 184.118 38.4183C184.428 37.3568 184.409 36.2646 184.116 35.3118C183.497 33.4101 182.223 31.9655 180.843 31.4573C180.162 31.1909 179.493 31.1192 178.921 31.1335C178.347 31.154 177.854 31.2257 177.469 31.3323C176.694 31.5311 176.298 31.7237 176.288 31.6991Z" fill="#263238"/>
  <path d="M158.778 195.133L102.193 194.871C95.3876 194.84 89.8952 189.303 89.9239 182.504L90.5228 40.7666C90.5515 33.9634 96.0952 28.4716 102.906 28.5023L159.492 28.7626C166.297 28.7933 171.789 34.3302 171.76 41.1293L171.161 182.866C171.133 189.672 165.587 195.164 158.778 195.133Z" fill="#455A64"/>
  <path d="M159.411 33.6559L148.44 33.6047C146.97 33.5986 145.77 34.8383 145.764 36.3752L145.756 38.3629C145.75 39.8998 144.552 41.1395 143.081 41.1334L121.696 41.035C120.226 41.0289 119.038 39.7768 119.044 38.2399L119.053 36.2522C119.059 34.7154 117.871 33.4633 116.401 33.4572L112.543 33.4387L102.941 33.3937C98.1721 33.3711 94.2897 37.2174 94.2692 41.9817L93.6847 180.327C93.6641 185.09 97.5117 188.967 102.276 188.989L158.748 189.25C163.517 189.272 167.399 185.426 167.42 180.661L168.004 42.3157C168.023 37.5555 164.177 33.6785 159.411 33.6559Z" fill="white"/>
  <path d="M120.568 164.007V165.524C120.369 165.667 120.157 165.775 119.931 165.847C119.706 165.917 119.46 165.952 119.192 165.952C118.873 165.952 118.587 165.903 118.331 165.805C118.075 165.706 117.857 165.568 117.675 165.392C117.494 165.213 117.355 165 117.258 164.752C117.161 164.504 117.112 164.23 117.112 163.933C117.112 163.631 117.159 163.356 117.252 163.108C117.348 162.86 117.483 162.647 117.658 162.471C117.833 162.292 118.045 162.154 118.295 162.057C118.545 161.959 118.825 161.911 119.134 161.911C119.29 161.911 119.435 161.923 119.569 161.947C119.704 161.969 119.828 162.002 119.942 162.046C120.056 162.088 120.162 162.141 120.259 162.203C120.356 162.264 120.448 162.333 120.532 162.41L120.38 162.653C120.356 162.689 120.325 162.713 120.287 162.724C120.25 162.734 120.208 162.724 120.162 162.697C120.118 162.671 120.068 162.64 120.011 162.603C119.954 162.566 119.884 162.531 119.801 162.498C119.72 162.463 119.624 162.434 119.512 162.41C119.401 162.386 119.27 162.374 119.117 162.374C118.895 162.374 118.693 162.411 118.513 162.484C118.333 162.556 118.179 162.66 118.052 162.796C117.926 162.93 117.828 163.094 117.76 163.287C117.692 163.478 117.658 163.693 117.658 163.933C117.658 164.181 117.693 164.403 117.763 164.6C117.834 164.795 117.936 164.961 118.066 165.099C118.199 165.235 118.359 165.339 118.546 165.411C118.734 165.483 118.944 165.519 119.178 165.519C119.362 165.519 119.524 165.498 119.666 165.458C119.809 165.416 119.949 165.358 120.085 165.284V164.415H119.47C119.435 164.415 119.407 164.405 119.385 164.385C119.364 164.365 119.354 164.34 119.354 164.31V164.007H120.568ZM123.109 164.206C123.109 164.092 123.092 163.988 123.059 163.894C123.028 163.798 122.981 163.716 122.919 163.648C122.858 163.579 122.783 163.525 122.695 163.488C122.607 163.45 122.507 163.431 122.395 163.431C122.159 163.431 121.973 163.499 121.835 163.637C121.699 163.773 121.614 163.963 121.581 164.206H123.109ZM123.506 165.516C123.445 165.589 123.373 165.654 123.288 165.709C123.204 165.762 123.113 165.806 123.015 165.841C122.92 165.876 122.82 165.902 122.717 165.919C122.614 165.937 122.512 165.946 122.411 165.946C122.218 165.946 122.04 165.914 121.876 165.85C121.714 165.783 121.573 165.688 121.454 165.563C121.336 165.436 121.244 165.28 121.178 165.094C121.112 164.908 121.079 164.695 121.079 164.454C121.079 164.259 121.108 164.077 121.167 163.908C121.228 163.739 121.314 163.592 121.426 163.469C121.539 163.344 121.676 163.247 121.837 163.177C121.999 163.105 122.181 163.069 122.384 163.069C122.551 163.069 122.705 163.098 122.847 163.155C122.99 163.21 123.114 163.291 123.217 163.397C123.321 163.502 123.403 163.633 123.462 163.789C123.521 163.944 123.55 164.12 123.55 164.319C123.55 164.396 123.542 164.447 123.525 164.473C123.509 164.499 123.478 164.512 123.432 164.512H121.564C121.57 164.688 121.594 164.842 121.636 164.972C121.68 165.103 121.741 165.212 121.818 165.301C121.895 165.387 121.987 165.452 122.094 165.496C122.201 165.539 122.32 165.56 122.452 165.56C122.576 165.56 122.681 165.546 122.77 165.519C122.86 165.489 122.937 165.458 123.001 165.425C123.066 165.392 123.119 165.361 123.161 165.334C123.205 165.304 123.243 165.29 123.274 165.29C123.315 165.29 123.346 165.305 123.368 165.337L123.506 165.516ZM124.99 165.952C124.769 165.952 124.599 165.89 124.479 165.767C124.362 165.644 124.303 165.466 124.303 165.234V163.524H123.966C123.937 163.524 123.912 163.516 123.892 163.499C123.872 163.481 123.861 163.454 123.861 163.417V163.221L124.319 163.163L124.432 162.3C124.438 162.272 124.45 162.25 124.468 162.233C124.489 162.215 124.514 162.206 124.546 162.206H124.794V163.168H125.602V163.524H124.794V165.201C124.794 165.319 124.822 165.406 124.879 165.463C124.936 165.52 125.01 165.549 125.1 165.549C125.151 165.549 125.196 165.542 125.232 165.53C125.271 165.515 125.304 165.499 125.332 165.483C125.359 165.466 125.382 165.451 125.401 165.439C125.421 165.424 125.438 165.416 125.453 165.416C125.479 165.416 125.502 165.432 125.522 165.463L125.665 165.698C125.581 165.777 125.479 165.839 125.359 165.885C125.24 165.93 125.116 165.952 124.99 165.952ZM129.148 163.574C129.126 163.614 129.092 163.635 129.046 163.635C129.018 163.635 128.987 163.625 128.952 163.604C128.917 163.584 128.874 163.562 128.822 163.538C128.773 163.512 128.713 163.489 128.643 163.469C128.573 163.447 128.49 163.436 128.395 163.436C128.312 163.436 128.238 163.447 128.171 163.469C128.105 163.489 128.048 163.518 128 163.555C127.954 163.591 127.918 163.635 127.893 163.684C127.869 163.732 127.857 163.785 127.857 163.842C127.857 163.913 127.877 163.973 127.918 164.021C127.96 164.069 128.015 164.11 128.083 164.145C128.151 164.18 128.228 164.211 128.315 164.239C128.401 164.264 128.489 164.293 128.58 164.324C128.672 164.354 128.761 164.387 128.847 164.424C128.934 164.46 129.011 164.506 129.079 164.561C129.147 164.617 129.201 164.685 129.242 164.766C129.284 164.845 129.305 164.94 129.305 165.052C129.305 165.181 129.282 165.301 129.236 165.411C129.19 165.519 129.122 165.614 129.032 165.695C128.942 165.774 128.831 165.837 128.701 165.883C128.57 165.929 128.42 165.952 128.249 165.952C128.054 165.952 127.877 165.92 127.719 165.858C127.561 165.793 127.427 165.712 127.316 165.612L127.432 165.425C127.447 165.401 127.464 165.382 127.485 165.37C127.505 165.357 127.53 165.35 127.562 165.35C127.595 165.35 127.63 165.363 127.667 165.389C127.703 165.415 127.747 165.443 127.799 165.474C127.852 165.506 127.917 165.534 127.992 165.56C128.067 165.586 128.161 165.599 128.273 165.599C128.369 165.599 128.453 165.587 128.524 165.563C128.596 165.537 128.656 165.503 128.704 165.461C128.751 165.418 128.786 165.37 128.808 165.314C128.832 165.259 128.844 165.2 128.844 165.138C128.844 165.061 128.823 164.997 128.781 164.948C128.74 164.896 128.686 164.853 128.618 164.818C128.55 164.781 128.472 164.75 128.384 164.724C128.297 164.697 128.208 164.668 128.116 164.639C128.026 164.609 127.937 164.576 127.849 164.539C127.762 164.501 127.685 164.453 127.617 164.396C127.549 164.339 127.494 164.269 127.451 164.186C127.411 164.102 127.391 164 127.391 163.88C127.391 163.773 127.413 163.671 127.457 163.574C127.501 163.475 127.565 163.388 127.65 163.315C127.735 163.239 127.838 163.18 127.962 163.135C128.085 163.091 128.226 163.069 128.384 163.069C128.568 163.069 128.732 163.099 128.877 163.157C129.025 163.214 129.151 163.294 129.258 163.395L129.148 163.574ZM130.765 165.952C130.544 165.952 130.374 165.89 130.254 165.767C130.137 165.644 130.078 165.466 130.078 165.234V163.524H129.741C129.712 163.524 129.687 163.516 129.667 163.499C129.647 163.481 129.637 163.454 129.637 163.417V163.221L130.095 163.163L130.208 162.3C130.213 162.272 130.225 162.25 130.243 162.233C130.264 162.215 130.289 162.206 130.321 162.206H130.569V163.168H131.377V163.524H130.569V165.201C130.569 165.319 130.597 165.406 130.654 165.463C130.711 165.52 130.785 165.549 130.875 165.549C130.927 165.549 130.971 165.542 131.007 165.53C131.046 165.515 131.079 165.499 131.107 165.483C131.134 165.466 131.157 165.451 131.176 165.439C131.196 165.424 131.213 165.416 131.228 165.416C131.254 165.416 131.277 165.432 131.297 165.463L131.441 165.698C131.356 165.777 131.254 165.839 131.134 165.885C131.015 165.93 130.892 165.952 130.765 165.952ZM133.398 164.65C133.172 164.657 132.979 164.675 132.819 164.705C132.661 164.732 132.531 164.769 132.43 164.815C132.331 164.861 132.258 164.915 132.212 164.978C132.168 165.04 132.146 165.11 132.146 165.188C132.146 165.261 132.158 165.325 132.182 165.378C132.206 165.431 132.238 165.475 132.279 165.51C132.321 165.543 132.37 165.568 132.425 165.585C132.482 165.599 132.542 165.607 132.607 165.607C132.693 165.607 132.772 165.599 132.844 165.582C132.916 165.564 132.983 165.538 133.045 165.505C133.11 165.472 133.17 165.432 133.227 165.386C133.286 165.34 133.343 165.288 133.398 165.229V164.65ZM131.812 163.508C131.967 163.359 132.133 163.248 132.312 163.174C132.49 163.1 132.688 163.064 132.905 163.064C133.061 163.064 133.2 163.089 133.321 163.141C133.443 163.192 133.545 163.264 133.627 163.356C133.71 163.448 133.773 163.559 133.815 163.69C133.857 163.82 133.878 163.964 133.878 164.12V165.907H133.66C133.613 165.907 133.576 165.9 133.55 165.885C133.524 165.869 133.504 165.838 133.489 165.792L133.434 165.527C133.361 165.595 133.289 165.656 133.219 165.709C133.149 165.76 133.076 165.804 132.998 165.841C132.921 165.876 132.838 165.903 132.75 165.921C132.664 165.941 132.567 165.952 132.461 165.952C132.352 165.952 132.25 165.937 132.154 165.907C132.059 165.876 131.975 165.83 131.903 165.77C131.834 165.709 131.777 165.633 131.735 165.541C131.695 165.447 131.674 165.337 131.674 165.21C131.674 165.099 131.705 164.994 131.765 164.892C131.826 164.789 131.925 164.698 132.061 164.619C132.197 164.54 132.374 164.476 132.593 164.426C132.812 164.375 133.08 164.345 133.398 164.338V164.12C133.398 163.903 133.351 163.739 133.258 163.629C133.164 163.517 133.027 163.461 132.847 163.461C132.725 163.461 132.623 163.477 132.541 163.508C132.46 163.537 132.389 163.571 132.328 163.61C132.269 163.647 132.218 163.681 132.174 163.712C132.131 163.741 132.089 163.756 132.047 163.756C132.014 163.756 131.985 163.748 131.961 163.731C131.937 163.713 131.917 163.691 131.901 163.665L131.812 163.508ZM135.092 163.673C135.181 163.482 135.289 163.333 135.418 163.226C135.547 163.118 135.704 163.064 135.889 163.064C135.948 163.064 136.004 163.07 136.058 163.083C136.113 163.096 136.162 163.116 136.204 163.144L136.168 163.511C136.157 163.556 136.129 163.579 136.085 163.579C136.06 163.579 136.022 163.574 135.972 163.563C135.923 163.552 135.867 163.546 135.804 163.546C135.716 163.546 135.637 163.559 135.567 163.585C135.499 163.611 135.437 163.649 135.382 163.701C135.329 163.75 135.28 163.813 135.236 163.888C135.193 163.962 135.155 164.047 135.12 164.142V165.907H134.626V163.113H134.908C134.961 163.113 134.998 163.123 135.018 163.144C135.038 163.164 135.052 163.199 135.059 163.248L135.092 163.673ZM137.493 165.952C137.273 165.952 137.103 165.89 136.983 165.767C136.866 165.644 136.807 165.466 136.807 165.234V163.524H136.47C136.441 163.524 136.416 163.516 136.396 163.499C136.375 163.481 136.365 163.454 136.365 163.417V163.221L136.823 163.163L136.936 162.3C136.942 162.272 136.954 162.25 136.972 162.233C136.992 162.215 137.018 162.206 137.049 162.206H137.298V163.168H138.106V163.524H137.298V165.201C137.298 165.319 137.326 165.406 137.383 165.463C137.44 165.52 137.514 165.549 137.604 165.549C137.655 165.549 137.699 165.542 137.736 165.53C137.775 165.515 137.808 165.499 137.835 165.483C137.863 165.466 137.886 165.451 137.904 165.439C137.925 165.424 137.942 165.416 137.957 165.416C137.983 165.416 138.006 165.432 138.026 165.463L138.169 165.698C138.085 165.777 137.983 165.839 137.863 165.885C137.744 165.93 137.62 165.952 137.493 165.952ZM140.467 164.206C140.467 164.092 140.45 163.988 140.417 163.894C140.386 163.798 140.339 163.716 140.276 163.648C140.216 163.579 140.141 163.525 140.053 163.488C139.965 163.45 139.865 163.431 139.752 163.431C139.517 163.431 139.33 163.499 139.192 163.637C139.056 163.773 138.972 163.963 138.939 164.206H140.467ZM140.864 165.516C140.803 165.589 140.731 165.654 140.646 165.709C140.561 165.762 140.47 165.806 140.373 165.841C140.277 165.876 140.178 165.902 140.075 165.919C139.972 165.937 139.87 165.946 139.769 165.946C139.576 165.946 139.397 165.914 139.234 165.85C139.072 165.783 138.931 165.688 138.812 165.563C138.694 165.436 138.602 165.28 138.536 165.094C138.47 164.908 138.437 164.695 138.437 164.454C138.437 164.259 138.466 164.077 138.525 163.908C138.586 163.739 138.672 163.592 138.784 163.469C138.896 163.344 139.033 163.247 139.195 163.177C139.357 163.105 139.539 163.069 139.741 163.069C139.909 163.069 140.063 163.098 140.205 163.155C140.348 163.21 140.471 163.291 140.574 163.397C140.679 163.502 140.761 163.633 140.82 163.789C140.879 163.944 140.908 164.12 140.908 164.319C140.908 164.396 140.9 164.447 140.883 164.473C140.867 164.499 140.835 164.512 140.789 164.512H138.922C138.928 164.688 138.952 164.842 138.994 164.972C139.038 165.103 139.099 165.212 139.176 165.301C139.253 165.387 139.345 165.452 139.452 165.496C139.558 165.539 139.678 165.56 139.81 165.56C139.933 165.56 140.039 165.546 140.127 165.519C140.218 165.489 140.295 165.458 140.359 165.425C140.424 165.392 140.477 165.361 140.519 165.334C140.563 165.304 140.601 165.29 140.632 165.29C140.673 165.29 140.704 165.305 140.726 165.337L140.864 165.516ZM143.332 163.778C143.24 163.655 143.14 163.569 143.034 163.522C142.927 163.472 142.808 163.447 142.675 163.447C142.416 163.447 142.216 163.54 142.077 163.726C141.937 163.911 141.867 164.176 141.867 164.52C141.867 164.702 141.883 164.858 141.914 164.989C141.945 165.118 141.991 165.224 142.052 165.309C142.112 165.392 142.187 165.452 142.275 165.491C142.363 165.53 142.464 165.549 142.576 165.549C142.738 165.549 142.878 165.512 142.998 165.439C143.119 165.365 143.23 165.261 143.332 165.127V163.778ZM143.823 161.845V165.907H143.53C143.46 165.907 143.416 165.873 143.398 165.805L143.354 165.466C143.234 165.61 143.098 165.725 142.945 165.814C142.793 165.902 142.616 165.946 142.416 165.946C142.256 165.946 142.111 165.916 141.98 165.855C141.849 165.793 141.738 165.702 141.646 165.582C141.554 165.462 141.484 165.314 141.434 165.135C141.384 164.957 141.359 164.752 141.359 164.52C141.359 164.314 141.387 164.123 141.442 163.946C141.497 163.768 141.576 163.613 141.679 163.483C141.782 163.352 141.908 163.25 142.057 163.177C142.208 163.101 142.377 163.064 142.565 163.064C142.736 163.064 142.882 163.093 143.003 163.152C143.127 163.209 143.236 163.289 143.332 163.392V161.845H143.823Z" fill="#E31337"/>
  <path d="M109.357 158.575L109.357 158.575L109.31 169.55C109.31 169.55 109.31 169.55 109.31 169.55C109.309 169.786 109.381 169.99 109.484 170.129C109.587 170.268 109.708 170.328 109.819 170.328L151.812 170.521C151.923 170.522 152.045 170.463 152.149 170.325C152.253 170.188 152.325 169.985 152.326 169.749V169.749L152.373 158.773L109.357 158.575ZM109.357 158.575C109.358 158.337 109.431 158.134 109.535 157.996C109.639 157.859 109.761 157.8 109.872 157.8L109.872 157.8M109.357 158.575L109.872 157.8M109.872 157.8L151.865 157.995M109.872 157.8L151.865 157.995M151.865 157.995C151.975 157.995 152.097 158.055 152.2 158.194M151.865 157.995L152.2 158.194M152.2 158.194C152.303 158.333 152.374 158.537 152.373 158.773L152.2 158.194Z" stroke="#E8505B" stroke-width="0.551657"/>
  <path d="M118.189 74.3152L103.619 74.248L103.607 76.9181L118.177 76.9853L118.189 74.3152Z" fill="#E8505B"/>
  <path opacity="0.1" d="M118.189 74.3152L103.619 74.248L103.607 76.9181L118.177 76.9853L118.189 74.3152Z" fill="black"/>
  <path d="M160.911 90.7049C160.909 90.6926 161.032 90.711 161.243 90.627C161.442 90.5491 161.756 90.3094 161.793 89.8647C161.791 88.9631 161.789 87.6495 161.785 85.9651C161.785 85.1168 161.785 84.1762 161.783 83.1455C161.783 82.8873 161.783 82.625 161.783 82.3566C161.791 82.082 161.789 81.8258 161.625 81.6147C161.475 81.4057 161.221 81.2705 160.954 81.2705C160.663 81.2705 160.368 81.2684 160.066 81.2684C157.656 81.2643 154.914 81.2582 151.883 81.252C139.746 81.207 122.998 81.1455 104.498 81.0758C104.254 81.0738 104.016 81.1926 103.875 81.3914C103.717 81.5922 103.723 81.8279 103.727 82.1311C103.725 82.7049 103.723 83.2787 103.719 83.8483C103.715 84.9897 103.709 86.1229 103.705 87.25C103.702 87.8135 103.7 88.3729 103.696 88.9323C103.705 89.2008 103.67 89.5204 103.719 89.7274C103.774 89.9549 103.947 90.1475 104.162 90.2376C104.273 90.2827 104.377 90.2991 104.513 90.2971L104.927 90.2991L105.753 90.3032C106.303 90.3053 106.851 90.3094 107.396 90.3114C111.759 90.334 115.967 90.3565 119.977 90.379C127.992 90.4282 135.211 90.4713 141.28 90.5081C147.334 90.5553 152.24 90.5942 155.64 90.6208C157.326 90.6413 158.641 90.6557 159.545 90.6659C159.984 90.6741 160.321 90.6803 160.56 90.6844C160.794 90.6926 160.911 90.7049 160.911 90.7049C160.911 90.7049 160.794 90.7151 160.565 90.7171C160.325 90.7192 159.988 90.7233 159.549 90.7274C158.645 90.7294 157.332 90.7335 155.644 90.7376C152.242 90.7335 147.338 90.7253 141.284 90.7192C135.217 90.7008 127.998 90.6782 119.981 90.6516C115.971 90.6352 111.763 90.6188 107.4 90.6024C106.855 90.6003 106.307 90.5983 105.758 90.5962L104.931 90.5921L104.517 90.5901C104.375 90.5922 104.199 90.5717 104.055 90.5081C103.758 90.3831 103.522 90.1188 103.444 89.8032C103.399 89.6434 103.409 89.4815 103.409 89.3504L103.411 88.9323C103.413 88.3729 103.415 87.8135 103.417 87.25C103.422 86.125 103.426 84.9897 103.432 83.8483C103.434 83.2766 103.436 82.7049 103.438 82.1311C103.442 81.9836 103.43 81.8545 103.452 81.6783C103.477 81.5123 103.54 81.3525 103.641 81.2193C103.836 80.9467 104.17 80.7787 104.504 80.7828C123.004 80.8852 139.752 80.9775 151.887 81.0451C154.918 81.0676 157.66 81.0881 160.07 81.1045C160.372 81.1066 160.667 81.1086 160.958 81.1127C161.276 81.1148 161.578 81.2787 161.752 81.5266C161.947 81.7705 161.945 82.1045 161.933 82.3586C161.931 82.627 161.928 82.8914 161.926 83.1475C161.916 84.1783 161.908 85.1188 161.902 85.9672C161.881 87.6536 161.865 88.9672 161.855 89.8708C161.805 90.3442 161.467 90.586 161.258 90.6557C161.032 90.7315 160.911 90.7049 160.911 90.7049Z" fill="#E0E0E0"/>
  <path d="M134.179 84.6445L107.527 84.5215L107.516 87.0174L134.168 87.1403L134.179 84.6445Z" fill="#E8505B"/>
  <path opacity="0.2" d="M134.179 84.6445L107.527 84.5215L107.516 87.0174L134.168 87.1403L134.179 84.6445Z" fill="white"/>
  <path d="M118.084 98.6905L103.515 98.6233L103.502 101.293L118.072 101.361L118.084 98.6905Z" fill="#E8505B"/>
  <path opacity="0.1" d="M118.084 98.6905L103.515 98.6233L103.502 101.293L118.072 101.361L118.084 98.6905Z" fill="black"/>
  <path d="M160.536 115.078C160.534 115.067 160.655 115.078 160.873 115.014C161.078 114.946 161.41 114.776 161.591 114.373C161.687 114.174 161.697 113.932 161.689 113.656C161.687 113.381 161.687 113.08 161.685 112.756C161.683 112.104 161.683 111.354 161.681 110.512C161.681 109.668 161.681 108.729 161.681 107.703C161.681 107.447 161.681 107.184 161.681 106.916C161.693 106.645 161.66 106.395 161.515 106.168C161.379 105.947 161.158 105.77 160.899 105.69C160.645 105.61 160.344 105.653 160.044 105.641C157.643 105.637 154.909 105.631 151.89 105.625C139.795 105.58 123.105 105.518 104.671 105.451C104.158 105.438 103.687 105.856 103.637 106.363C103.621 106.901 103.629 107.496 103.623 108.057C103.619 109.194 103.613 110.326 103.609 111.447C103.607 112.008 103.605 112.567 103.6 113.123C103.611 113.401 103.57 113.69 103.635 113.914C103.699 114.147 103.849 114.356 104.05 114.494C104.257 114.633 104.482 114.684 104.755 114.674L105.58 114.678C106.127 114.68 106.673 114.684 107.216 114.686C111.564 114.709 115.758 114.731 119.754 114.752C127.742 114.801 134.937 114.844 140.983 114.881C147.017 114.928 151.904 114.967 155.294 114.994C156.976 115.014 158.284 115.028 159.185 115.039C159.622 115.047 159.958 115.053 160.196 115.057C160.419 115.067 160.536 115.078 160.536 115.078C160.536 115.078 160.419 115.088 160.192 115.09C159.954 115.092 159.618 115.096 159.181 115.1C158.28 115.102 156.972 115.106 155.29 115.11C151.9 115.106 147.013 115.098 140.979 115.092C134.933 115.074 127.738 115.051 119.749 115.026C115.754 115.01 111.56 114.994 107.212 114.977C106.669 114.975 106.123 114.973 105.575 114.971L104.751 114.967C104.474 114.981 104.134 114.916 103.883 114.735C103.627 114.559 103.436 114.293 103.352 113.992C103.268 113.674 103.317 113.399 103.305 113.123C103.307 112.565 103.309 112.008 103.311 111.447C103.315 110.326 103.322 109.194 103.326 108.057C103.332 107.481 103.321 106.934 103.342 106.33C103.406 105.678 104.013 105.141 104.671 105.16C123.105 105.262 139.795 105.354 151.89 105.42C154.911 105.442 157.643 105.461 160.044 105.479C160.342 105.496 160.641 105.447 160.947 105.541C161.242 105.633 161.492 105.836 161.646 106.09C161.808 106.338 161.843 106.656 161.826 106.918C161.824 107.186 161.822 107.449 161.82 107.705C161.812 108.731 161.802 109.67 161.796 110.514C161.787 111.356 161.779 112.106 161.773 112.758C161.769 113.082 161.765 113.383 161.763 113.658C161.767 113.928 161.753 114.194 161.646 114.399C161.447 114.819 161.096 114.985 160.883 115.045C160.655 115.098 160.536 115.078 160.536 115.078Z" fill="#E0E0E0"/>
  <path d="M117.978 124.113L103.408 124.046L103.396 126.716L117.966 126.783L117.978 124.113Z" fill="#E8505B"/>
  <path opacity="0.1" d="M117.978 124.113L103.408 124.046L103.396 126.716L117.966 126.783L117.978 124.113Z" fill="black"/>
  <path d="M160.429 140.5C160.429 140.49 160.548 140.5 160.766 140.436C160.973 140.369 161.303 140.199 161.483 139.795C161.58 139.596 161.59 139.354 161.582 139.078C161.58 138.803 161.58 138.502 161.578 138.178C161.576 137.526 161.576 136.776 161.574 135.934C161.574 135.09 161.574 134.151 161.572 133.125C161.572 132.869 161.572 132.606 161.572 132.338C161.584 132.067 161.551 131.817 161.405 131.592C161.268 131.371 161.049 131.194 160.79 131.115C160.536 131.035 160.234 131.078 159.933 131.065C157.531 131.061 154.797 131.055 151.778 131.049C139.684 131.004 122.994 130.942 104.56 130.875C104.047 130.863 103.575 131.278 103.526 131.787C103.51 132.326 103.518 132.92 103.512 133.481C103.508 134.619 103.501 135.75 103.497 136.871C103.495 137.432 103.493 137.99 103.489 138.547C103.499 138.824 103.458 139.115 103.524 139.336C103.588 139.569 103.737 139.778 103.938 139.916C104.145 140.055 104.371 140.108 104.644 140.096L105.468 140.1C106.016 140.102 106.561 140.106 107.105 140.108C111.453 140.131 115.647 140.153 119.642 140.174C127.631 140.223 134.825 140.266 140.872 140.303C146.905 140.35 151.793 140.389 155.183 140.416C156.865 140.436 158.173 140.451 159.074 140.461C159.51 140.469 159.847 140.475 160.085 140.479C160.312 140.49 160.429 140.5 160.429 140.5C160.429 140.5 160.312 140.51 160.085 140.512C159.845 140.514 159.51 140.518 159.074 140.522C158.173 140.524 156.863 140.528 155.183 140.533C151.793 140.528 146.907 140.522 140.872 140.514C134.825 140.496 127.631 140.473 119.642 140.449C115.647 140.432 111.453 140.416 107.105 140.399C106.561 140.397 106.016 140.395 105.468 140.391L104.644 140.387C104.367 140.401 104.026 140.334 103.776 140.156C103.52 139.979 103.327 139.713 103.245 139.412C103.161 139.094 103.212 138.819 103.198 138.543C103.2 137.985 103.202 137.428 103.204 136.867C103.208 135.744 103.212 134.615 103.218 133.477C103.225 132.901 103.214 132.354 103.235 131.75C103.298 131.098 103.905 130.563 104.564 130.58C122.998 130.682 139.688 130.774 151.782 130.84C154.801 130.863 157.535 130.881 159.937 130.899C160.234 130.916 160.534 130.867 160.839 130.961C161.135 131.053 161.385 131.256 161.539 131.51C161.701 131.758 161.736 132.076 161.719 132.338C161.717 132.606 161.715 132.869 161.713 133.125C161.705 134.151 161.697 135.09 161.688 135.934C161.68 136.776 161.672 137.526 161.666 138.178C161.662 138.502 161.658 138.803 161.656 139.078C161.66 139.348 161.645 139.615 161.539 139.819C161.34 140.24 160.989 140.406 160.776 140.465C160.548 140.52 160.429 140.5 160.429 140.5Z" fill="#E0E0E0"/>
  <path d="M134.078 109.019L107.426 108.896L107.414 111.392L134.066 111.515L134.078 109.019Z" fill="#E8505B"/>
  <path opacity="0.2" d="M134.078 109.019L107.426 108.896L107.414 111.392L134.066 111.515L134.078 109.019Z" fill="white"/>
  <path d="M109.846 135.878C109.849 135.192 109.33 134.633 108.687 134.63C108.043 134.627 107.519 135.181 107.516 135.867C107.512 136.552 108.031 137.111 108.675 137.114C109.318 137.117 109.842 136.563 109.846 135.878Z" fill="#E8505B"/>
  <path d="M113.456 135.895C113.459 135.209 112.94 134.651 112.297 134.648C111.653 134.645 111.129 135.198 111.126 135.884C111.123 136.57 111.642 137.128 112.285 137.131C112.928 137.134 113.453 136.581 113.456 135.895Z" fill="#E8505B"/>
  <path d="M117.065 135.912C117.069 135.226 116.55 134.668 115.906 134.665C115.263 134.662 114.739 135.215 114.735 135.901C114.732 136.587 115.251 137.145 115.894 137.148C116.538 137.151 117.062 136.598 117.065 135.912Z" fill="#E8505B"/>
  <path d="M120.676 135.927C120.679 135.241 120.16 134.683 119.517 134.68C118.873 134.677 118.349 135.23 118.346 135.916C118.342 136.602 118.861 137.16 119.505 137.163C120.148 137.167 120.672 136.613 120.676 135.927Z" fill="#E8505B"/>
  <path d="M124.286 135.944C124.289 135.259 123.77 134.7 123.126 134.697C122.483 134.695 121.959 135.248 121.956 135.934C121.953 136.62 122.472 137.178 123.115 137.181C123.758 137.184 124.283 136.63 124.286 135.944Z" fill="#E8505B"/>
  <path d="M127.896 135.962C127.899 135.276 127.38 134.717 126.737 134.714C126.093 134.712 125.569 135.265 125.566 135.951C125.563 136.637 126.082 137.195 126.725 137.198C127.369 137.201 127.893 136.647 127.896 135.962Z" fill="#E8505B"/>
  <path d="M131.505 135.977C131.508 135.291 130.989 134.733 130.346 134.73C129.703 134.727 129.179 135.281 129.176 135.967C129.172 136.653 129.691 137.211 130.335 137.214C130.978 137.217 131.502 136.663 131.505 135.977Z" fill="#E8505B"/>
  <path d="M135.118 135.995C135.121 135.309 134.602 134.75 133.958 134.747C133.315 134.745 132.791 135.298 132.788 135.984C132.785 136.67 133.304 137.228 133.947 137.231C134.591 137.234 135.115 136.68 135.118 135.995Z" fill="#E8505B"/>
  <path d="M138.728 136.012C138.732 135.326 138.213 134.768 137.569 134.765C136.926 134.762 136.402 135.315 136.398 136.001C136.395 136.687 136.914 137.245 137.558 137.248C138.201 137.251 138.725 136.698 138.728 136.012Z" fill="#E8505B"/>
  <g opacity="0.2">
    <g opacity="0.2">
      <path opacity="0.2" d="M109.846 135.878C109.849 135.192 109.33 134.633 108.687 134.63C108.043 134.627 107.519 135.181 107.516 135.867C107.512 136.552 108.031 137.111 108.675 137.114C109.318 137.117 109.842 136.563 109.846 135.878Z" fill="white"/>
    </g>
    <g opacity="0.2">
      <path opacity="0.2" d="M113.456 135.895C113.459 135.209 112.94 134.651 112.297 134.648C111.653 134.645 111.129 135.198 111.126 135.884C111.123 136.57 111.642 137.128 112.285 137.131C112.928 137.134 113.453 136.581 113.456 135.895Z" fill="white"/>
    </g>
    <g opacity="0.2">
      <path opacity="0.2" d="M117.065 135.912C117.069 135.226 116.55 134.668 115.906 134.665C115.263 134.662 114.739 135.215 114.735 135.901C114.732 136.587 115.251 137.145 115.894 137.148C116.538 137.151 117.062 136.598 117.065 135.912Z" fill="white"/>
    </g>
    <g opacity="0.2">
      <path opacity="0.2" d="M120.676 135.927C120.679 135.241 120.16 134.683 119.517 134.68C118.873 134.677 118.349 135.23 118.346 135.916C118.342 136.602 118.861 137.16 119.505 137.163C120.148 137.167 120.672 136.613 120.676 135.927Z" fill="white"/>
    </g>
    <g opacity="0.2">
      <path opacity="0.2" d="M124.286 135.944C124.289 135.259 123.77 134.7 123.126 134.697C122.483 134.695 121.959 135.248 121.956 135.934C121.953 136.62 122.472 137.178 123.115 137.181C123.758 137.184 124.283 136.63 124.286 135.944Z" fill="white"/>
    </g>
    <g opacity="0.2">
      <path opacity="0.2" d="M127.896 135.962C127.899 135.276 127.38 134.717 126.737 134.714C126.093 134.712 125.569 135.265 125.566 135.951C125.563 136.637 126.082 137.195 126.725 137.198C127.369 137.201 127.893 136.647 127.896 135.962Z" fill="white"/>
    </g>
    <g opacity="0.2">
      <path opacity="0.2" d="M131.505 135.977C131.508 135.291 130.989 134.733 130.346 134.73C129.703 134.727 129.179 135.281 129.176 135.967C129.172 136.653 129.691 137.211 130.335 137.214C130.978 137.217 131.502 136.663 131.505 135.977Z" fill="white"/>
    </g>
    <g opacity="0.2">
      <path opacity="0.2" d="M135.118 135.995C135.121 135.309 134.602 134.75 133.958 134.747C133.315 134.745 132.791 135.298 132.788 135.984C132.785 136.67 133.304 137.228 133.947 137.231C134.591 137.234 135.115 136.68 135.118 135.995Z" fill="white"/>
    </g>
    <g opacity="0.2">
      <path opacity="0.2" d="M138.728 136.012C138.732 135.326 138.213 134.768 137.569 134.765C136.926 134.762 136.402 135.315 136.398 136.001C136.395 136.687 136.914 137.245 137.558 137.248C138.201 137.251 138.725 136.698 138.728 136.012Z" fill="white"/>
    </g>
  </g>
  <path d="M133.597 54.2972C134.36 53.9775 134.901 53.1927 134.905 52.2665C134.909 51.0533 133.993 50.0677 132.854 50.0616C131.716 50.0554 130.791 51.0349 130.785 52.248C130.781 53.1824 131.326 53.9775 132.097 54.2972C128.927 54.7746 129.07 58.2172 129.07 58.2172L136.568 58.2521C136.571 58.2521 136.741 54.7705 133.597 54.2972Z" fill="#E8505B"/>
  <path opacity="0.1" d="M133.597 54.2972C134.36 53.9775 134.901 53.1927 134.905 52.2665C134.909 51.0533 133.993 50.0677 132.854 50.0616C131.716 50.0554 130.791 51.0349 130.785 52.248C130.781 53.1824 131.326 53.9775 132.097 54.2972C128.927 54.7746 129.07 58.2172 129.07 58.2172L136.568 58.2521C136.571 58.2521 136.741 54.7705 133.597 54.2972Z" fill="black"/>
  <path d="M145.786 60.5048L119.05 60.3818L119.035 63.5765L145.771 63.6994L145.786 60.5048Z" fill="#E8505B"/>
  <path opacity="0.2" d="M145.786 60.5048L119.05 60.3818L119.035 63.5765L145.771 63.6994L145.786 60.5048Z" fill="white"/>
  <path d="M47.4983 77.0349C47.4983 77.0411 47.408 77.0513 47.2358 77.0636C47.0491 77.078 46.7927 77.0964 46.4646 77.1189C46.1241 77.1251 45.7099 77.1989 45.2217 77.2849C44.9797 77.3341 44.7111 77.3546 44.4362 77.4345C44.1614 77.5103 43.8681 77.5923 43.5584 77.6784C42.3361 78.0636 40.8635 78.6763 39.3807 79.748C37.902 80.8116 36.4232 82.3341 35.2706 84.3197C34.6635 85.2951 34.2246 86.4222 33.8288 87.6066C33.5068 88.8115 33.2238 90.0923 33.2012 91.4427C33.1417 92.1148 33.2094 92.7992 33.2381 93.4939C33.2566 93.8422 33.3304 94.1865 33.3756 94.5349C33.4227 94.8853 33.474 95.2377 33.5745 95.582C33.8616 96.9898 34.4338 98.3689 35.1599 99.6906C36.6099 102.344 39.0484 104.631 42.0592 105.955C43.5666 106.619 45.232 106.977 46.924 107.047C48.6201 107.154 50.3573 106.883 52.0021 106.318L52.5005 106.135L52.5661 106.111L52.6256 106.141C55.0642 107.377 57.4535 108.59 59.771 109.766L59.5577 109.947C58.7948 107.58 58.0544 105.287 57.3448 103.086L57.3181 103.002L57.3817 102.939C59.1824 101.137 60.4376 98.9488 61.1329 96.707C61.8302 94.459 61.9491 92.1701 61.6764 90.0718C61.4036 87.9693 60.7165 86.0574 59.7998 84.4488C58.883 82.8361 57.7427 81.5247 56.5736 80.5021C55.3903 79.4857 54.1638 78.7972 53.0645 78.2706C51.9385 77.7993 50.9336 77.498 50.0989 77.3382C49.6825 77.2665 49.3113 77.205 48.9872 77.1497C48.6673 77.1271 48.3925 77.1087 48.1669 77.0923C47.9556 77.0759 47.7895 77.0636 47.6644 77.0534C47.5577 77.0472 47.4983 77.039 47.4983 77.0349C47.4983 77.0308 47.5557 77.0288 47.6685 77.0308C47.7936 77.0349 47.9618 77.039 48.173 77.0452C48.4007 77.0534 48.6755 77.0657 48.9975 77.078C49.3236 77.1271 49.6989 77.1825 50.1194 77.2439C50.9623 77.3915 51.9796 77.6804 53.1219 78.1435C54.2376 78.662 55.4866 79.3484 56.6926 80.3669C57.8862 81.3935 59.0491 82.7132 59.9905 84.3443C60.9298 85.9714 61.6394 87.9078 61.9245 90.0431C62.2096 92.1722 62.0988 94.5 61.3954 96.7889C60.694 99.0717 59.4224 101.305 57.5889 103.148L57.6237 103C58.3374 105.199 59.0799 107.492 59.8469 109.857L59.9597 110.203L59.6357 110.039C57.3181 108.865 54.9267 107.654 52.4882 106.418L52.6133 106.424L52.1047 106.611C50.4208 107.189 48.6447 107.465 46.9117 107.357C45.1807 107.285 43.4784 106.916 41.9402 106.236C38.8638 104.879 36.3843 102.541 34.9117 99.834C34.1754 98.4857 33.5971 97.0799 33.3079 95.6455C33.2074 95.2931 33.1561 94.9345 33.1089 94.5779C33.0659 94.2213 32.99 93.8709 32.9736 93.5185C32.9469 92.8115 32.8813 92.1168 32.9449 91.4324C32.9715 90.0615 33.2669 88.7603 33.5991 87.539C34.0052 86.3382 34.4584 85.1968 35.0799 84.2111C36.2612 82.205 37.7707 80.6743 39.2781 79.6107C40.7876 78.539 42.2827 77.9366 43.5215 77.5657C43.8353 77.4837 44.1306 77.4058 44.4096 77.3341C44.6864 77.2562 44.9572 77.2419 45.2033 77.1968C45.6976 77.1189 46.1139 77.0554 46.4564 77.0595C46.7866 77.0493 47.043 77.0411 47.2316 77.0329C47.4101 77.0288 47.4983 77.0288 47.4983 77.0349Z" fill="#E8505B"/>
  <path d="M50.7309 90.2521H49.6849L47.4002 87.0698V84.9817C47.4002 84.9817 45.782 84.8813 45.9727 87.6169C46.1634 90.3505 45.9563 89.6558 45.9563 89.6558C45.9563 89.6558 42.521 89.6681 42.2339 89.9673C42.0267 90.1845 41.9324 93.5943 41.8955 95.4447C41.877 96.3751 42.4492 97.2419 43.3147 97.4611C43.4378 97.4919 43.5629 97.5103 43.6839 97.5103C44.5412 97.5103 48.9199 96.8136 48.9199 96.8136H50.7288V90.2521H50.7309Z" fill="#E8505B"/>
  <path d="M53.727 89.6785L53.083 96.8321H51.2905V89.8219L53.727 89.6785Z" fill="#E8505B"/>
  <path d="M75.0788 235.334V230.491L66.3931 230.434L66.3213 237.75L66.8586 237.791C69.2541 237.946 79.0494 238.17 80.6553 237.674C82.4478 237.118 75.0788 235.334 75.0788 235.334Z" fill="#E8505B"/>
  <path d="M73.6083 237.366C77.6158 237.366 80.8645 237.3 80.8645 237.219C80.8645 237.137 77.6158 237.071 73.6083 237.071C69.6008 237.071 66.3521 237.137 66.3521 237.219C66.3521 237.3 69.6008 237.366 73.6083 237.366Z" fill="#263238"/>
  <path d="M75.2323 236.321C75.1605 236.284 75.222 236.028 75.4087 235.776C75.5953 235.522 75.8209 235.389 75.8783 235.446C75.9358 235.506 75.8168 235.717 75.6466 235.952C75.4743 236.184 75.3041 236.36 75.2323 236.321Z" fill="#263238"/>
  <path d="M75.7865 236.641C75.7106 236.612 75.7496 236.325 75.9218 236.024C76.0921 235.721 76.3177 235.541 76.3813 235.59C76.4469 235.641 76.3361 235.887 76.1803 236.17C76.0182 236.45 75.8644 236.672 75.7865 236.641Z" fill="#263238"/>
  <path d="M68.9689 237.196C68.9341 237.221 68.8048 237.094 68.6182 236.879C68.4295 236.668 68.1814 236.369 67.8573 236.116C67.5353 235.864 67.1805 235.739 66.918 235.707C66.6534 235.672 66.4812 235.713 66.4648 235.67C66.4504 235.639 66.6104 235.518 66.9242 235.498C67.2318 235.477 67.6686 235.594 68.0358 235.883C68.4029 236.168 68.6367 236.51 68.7864 236.756C68.9341 237.006 69.0017 237.174 68.9689 237.196Z" fill="#263238"/>
  <path d="M75.2593 235.412C75.3023 235.479 75.1526 235.647 74.9045 235.739C74.6563 235.832 74.4348 235.799 74.4225 235.719C74.4102 235.637 74.5866 235.543 74.8019 235.463C75.0193 235.383 75.2162 235.342 75.2593 235.412Z" fill="#263238"/>
  <path d="M75.1219 234.944C75.1301 235.026 74.8983 235.096 74.605 235.1C74.3118 235.104 74.078 235.041 74.0841 234.961C74.0903 234.879 74.32 234.811 74.6009 234.807C74.8819 234.801 75.1137 234.862 75.1219 234.944Z" fill="#263238"/>
  <path d="M96.4665 235.334V230.491L87.7808 230.434L87.709 237.676L88.2463 237.715C90.6418 237.87 100.439 238.17 102.043 237.674C103.835 237.118 96.4665 235.334 96.4665 235.334Z" fill="#E8505B"/>
  <path d="M94.9955 237.377C99.0029 237.377 102.252 237.311 102.252 237.229C102.252 237.148 99.0029 237.082 94.9955 237.082C90.988 237.082 87.7393 237.148 87.7393 237.229C87.7393 237.311 90.988 237.377 94.9955 237.377Z" fill="#263238"/>
  <path d="M96.62 236.321C96.5482 236.284 96.6097 236.028 96.7964 235.776C96.983 235.522 97.2086 235.389 97.266 235.446C97.3234 235.506 97.2045 235.717 97.0343 235.952C96.862 236.184 96.6918 236.36 96.62 236.321Z" fill="#263238"/>
  <path d="M97.1737 236.641C97.0978 236.612 97.1368 236.325 97.309 236.024C97.4793 235.721 97.7049 235.541 97.7685 235.59C97.8341 235.641 97.7234 235.887 97.5675 236.17C97.4054 236.45 97.2496 236.672 97.1737 236.641Z" fill="#263238"/>
  <path d="M90.3565 237.196C90.3237 237.221 90.1925 237.094 90.0058 236.879C89.8171 236.668 89.569 236.369 89.2449 236.116C88.9229 235.864 88.5681 235.739 88.3056 235.707C88.041 235.672 87.8688 235.713 87.8544 235.67C87.84 235.639 88 235.518 88.3138 235.498C88.6214 235.477 89.0583 235.594 89.4275 235.883C89.7946 236.168 90.0284 236.51 90.1781 236.756C90.3217 237.006 90.3893 237.174 90.3565 237.196Z" fill="#263238"/>
  <path d="M96.6469 235.412C96.69 235.479 96.5403 235.647 96.2921 235.739C96.044 235.832 95.8225 235.799 95.8102 235.719C95.7979 235.637 95.9742 235.543 96.1896 235.463C96.407 235.383 96.6039 235.342 96.6469 235.412Z" fill="#263238"/>
  <path d="M96.5096 234.944C96.5178 235.026 96.286 235.096 95.9928 235.1C95.6995 235.104 95.4656 235.041 95.4718 234.961C95.478 234.879 95.7097 234.811 95.9886 234.807C96.2696 234.801 96.5014 234.862 96.5096 234.944Z" fill="#263238"/>
  <path d="M128.461 91.6211C128.233 91.3875 127.677 91.4982 127.677 91.4982C127.677 91.4982 127.774 90.8363 127.671 90.5166C127.569 90.1969 126.855 90.2584 126.855 90.2584C126.855 90.2584 126.81 89.951 126.873 89.4531C126.89 89.3281 126.82 89.2359 126.707 89.1682C126.369 88.9633 125.641 88.9736 125.641 88.9736C125.204 88.6621 126.974 86.1888 127.628 85.3978C128.276 84.615 128.168 83.99 127.583 83.99C127.185 83.99 125.118 86.367 124.488 87.1662C123.859 87.9633 122.169 90.1826 122.111 88.4121C122.054 86.6416 121.34 85.3015 120.897 85.072C120.452 84.8445 119.972 85.3793 120.218 85.8711C120.417 86.2687 120.542 87.0351 120.614 87.6129C120.673 88.0904 120.653 88.576 120.548 89.0453C120.253 90.3732 119.935 91.2338 119.785 91.6027L119.742 91.5781C119.742 91.5781 107.377 103.424 106.485 104.271C105.683 105.031 89.6162 103.371 86.3962 103.029C85.5163 102.93 84.214 102.754 83.0839 102.803C81.6873 102.865 81.4391 103.062 80.0424 103.082C75.7621 103.14 72.1976 103.555 69.5437 104.004C66.334 104.547 63.7047 106.828 62.712 109.926C59.4633 120.057 52.1128 144.041 50.8022 157.514C49.7706 159.453 48.618 161.715 48.1504 162.99C47.2398 165.465 47.4613 165.551 47.7669 165.609C48.5913 165.76 49.5327 161.313 49.8855 162.387C50.2382 163.461 48.0991 167.693 48.9667 167.815C50.0967 167.977 50.9991 163.303 51.1037 162.914C51.2063 162.535 51.7764 162.664 51.6636 163.01C51.4996 163.508 49.906 168.791 51.0135 168.959C51.6288 169.053 51.6944 167.934 51.6944 167.934C51.6944 167.934 52.8224 162.883 53.3413 162.981C53.8704 163.08 53.3085 166.068 53.048 167.061C52.7896 168.043 53.1526 168.565 53.6838 168.318C54.0448 168.15 54.9164 165.123 55.1502 164.135C55.3861 163.145 55.9809 160.422 56.7807 162.004C57.5806 163.586 58.7906 164.5 59.2911 164.52C59.7915 164.539 60.0007 163.852 59.57 163.51C59.2213 163.234 58.7845 162.592 58.4748 162.098C58.2205 161.691 58.0338 161.242 57.9292 160.772C57.5314 158.961 57.5334 157.908 57.5334 157.908L57.4411 157.326C58.7106 151.047 62.3675 132.625 67.6199 120.857L69.7836 125.303L70.723 128.596L64.9578 142.826L89.5526 142.502L85.8855 128.385L90.3402 113.666C95.1619 113.773 107.543 113.953 109.625 113.025C112.22 111.867 125.645 94.9572 125.645 94.9572C126.551 94.2358 127.474 93.4592 128.155 92.7809C128.153 92.7727 128.953 92.1252 128.461 91.6211Z" fill="#FFBE9D"/>
  <path d="M63.8872 132.342C64.5989 129.91 68.2659 117.877 68.2659 117.877C68.2659 117.877 70.0646 127.687 69.5929 128.869C69.0473 130.23 68.0465 131.789 68.0465 131.789C63.8872 138.117 64.4348 141.279 64.4348 141.279L89.5546 140.512C89.6161 137.002 87.5365 128.842 87.1017 127.541C86.6669 126.242 88.1087 121.973 88.1087 121.973C88.1087 121.973 90.9472 119.092 90.8385 117.611C90.617 114.625 90.3442 113.66 90.3442 113.66L105.63 114.221L105.15 103.859L83.1782 101.662C82.4174 103.824 75.4996 102.765 75.4996 102.765C68.0301 103.01 67.5768 104.381 64.4635 106.791C61.3481 109.201 56.2188 129.896 56.2188 129.896L63.8872 132.342Z" fill="#E8505B"/>
  <path d="M78.7424 129.894C78.7424 129.933 78.2358 129.965 77.4175 129.961C76.5991 129.957 75.4691 129.906 74.2283 129.781C72.9854 129.656 71.8676 129.48 71.0657 129.322C70.2638 129.164 69.7736 129.031 69.7818 128.994C69.79 128.953 70.2905 129.012 71.0985 129.117C71.9066 129.221 73.0223 129.363 74.257 129.488C75.4916 129.611 76.6135 129.695 77.4257 129.752C78.2399 129.812 78.7424 129.853 78.7424 129.894Z" fill="#263238"/>
  <path d="M80.4631 127.76C80.4733 127.797 79.9565 127.994 79.091 128.228C78.2275 128.461 77.0154 128.719 75.6577 128.881C74.3 129.041 73.0592 129.074 72.165 129.049C71.2708 129.025 70.7211 128.953 70.7232 128.916C70.7252 128.873 71.2769 128.869 72.165 128.84C73.053 128.814 74.2774 128.748 75.6228 128.588C76.9662 128.429 78.1742 128.205 79.0438 128.025C79.9134 127.842 80.4507 127.717 80.4631 127.76Z" fill="#263238"/>
  <path d="M88.9131 118.238C88.9521 118.246 88.8885 118.736 88.7408 119.519C88.5952 120.301 88.3655 121.377 88.0763 122.558C87.7871 123.738 87.4918 124.797 87.2601 125.56C87.0263 126.322 86.8581 126.785 86.8191 126.775C86.7801 126.764 86.8765 126.281 87.0591 125.506C87.2724 124.623 87.5185 123.609 87.7913 122.488C88.0681 121.369 88.3204 120.357 88.5398 119.476C88.7347 118.703 88.8721 118.23 88.9131 118.238Z" fill="#263238"/>
  <path d="M64.1436 130.903C64.1651 130.825 62.4675 130.293 60.352 129.717C58.2365 129.14 56.5042 128.736 56.4827 128.815C56.4612 128.894 58.1588 129.425 60.2743 130.001C62.3898 130.578 64.1221 130.982 64.1436 130.903Z" fill="#263238"/>
  <path d="M90.6173 113.527C90.6173 113.541 90.3855 113.566 89.9672 113.523C89.5508 113.48 88.9437 113.383 88.2403 113.111C87.5347 112.846 86.7349 112.406 85.9863 111.74C85.2377 111.076 84.5691 110.162 84.1425 109.086C83.7098 108.012 83.5662 106.892 83.6359 105.896C83.7016 104.9 83.9661 104.002 84.4112 103.371C84.8521 102.732 85.4366 102.424 85.8448 102.316C86.0519 102.26 86.2181 102.248 86.3288 102.25C86.4396 102.252 86.497 102.265 86.497 102.275C86.499 102.303 86.2611 102.289 85.8796 102.424C85.5043 102.56 84.9752 102.877 84.5855 103.486C83.8144 104.697 83.599 106.908 84.4194 108.976C84.8296 110.008 85.4613 110.887 86.1729 111.537C86.8826 112.189 87.6455 112.635 88.3223 112.916C89.678 113.482 90.6276 113.463 90.6173 113.527Z" fill="#263238"/>
  <path d="M103.98 108.797C103.985 105.917 103.924 103.582 103.842 103.582C103.761 103.582 103.69 105.916 103.684 108.797C103.678 111.677 103.74 114.012 103.821 114.012C103.903 114.012 103.974 111.677 103.98 108.797Z" fill="#263238"/>
  <path d="M83.0395 102.293C83.101 101.029 83.2343 99.6025 83.2343 99.6025C83.2343 99.6025 86.3599 99.2583 86.5507 96.0308C86.7414 92.8034 86.5507 85.3629 86.5507 85.3629L80.8573 82.4653L74.5938 87.4038L75.5433 103.537L81.3064 103.904C82.213 103.963 82.9923 103.24 83.0395 102.293Z" fill="#FFBE9D"/>
  <path d="M83.6017 93.4797C83.6099 93.4817 83.6119 93.5391 83.5525 93.619C83.495 93.6948 83.3679 93.7809 83.1936 93.7768C82.8306 93.7604 82.4819 93.3587 82.3527 92.869C82.2891 92.621 82.2891 92.369 82.3363 92.1518C82.3753 91.9387 82.4983 91.7235 82.6767 91.6661C82.7608 91.6354 82.849 91.6375 82.9167 91.6723C82.9823 91.7051 83.0233 91.7563 83.0438 91.8014C83.0869 91.8977 83.0541 91.9551 83.0459 91.951C83.0336 91.951 83.0356 91.8977 82.9885 91.8362C82.9434 91.7747 82.8367 91.7194 82.7198 91.7789C82.5988 91.8321 82.5168 91.9858 82.486 92.1825C82.4511 92.3772 82.4552 92.6006 82.5127 92.8219C82.6255 93.2604 82.9311 93.619 83.1997 93.6518C83.333 93.6682 83.4438 93.6169 83.5053 93.5678C83.5689 93.5186 83.5914 93.4735 83.6017 93.4797Z" fill="#EB996E"/>
  <path d="M88.4902 83.6232C88.0554 82.1375 86.4741 81.3998 85.0343 80.9921C82.844 80.3712 80.471 80.0966 78.3299 80.8855C76.1887 81.6724 73.6148 83.0576 73.6168 85.4203C72.3534 85.3158 71.6315 86.4224 71.1311 87.7933C70.8357 88.6027 70.6409 89.5043 70.5937 90.3957L70.5732 90.3896C70.4112 93.4818 69.5478 97.742 67.542 100.029C66.4345 101.291 64.8388 102.164 64.1928 103.736C63.6308 105.103 63.9221 106.717 63.3909 108.098C62.9233 109.316 61.8855 110.18 61.141 111.242C59.5208 113.549 59.41 116.812 60.6016 119.387C61.7911 121.963 64.1497 123.848 66.7688 124.711C69.3857 125.576 72.2386 125.48 74.9027 124.787C76.8696 124.275 78.7831 123.428 80.3521 122.09C81.919 120.752 83.1229 118.891 83.4797 116.814C83.8797 114.502 83.2316 112.154 82.7537 109.857C81.2463 102.592 81.677 102.213 83.5782 95.4756C83.6213 95.3567 83.6479 95.2338 83.6807 95.1108C83.7053 95.0207 83.73 94.9367 83.7566 94.8445L83.7525 94.8424C83.8058 94.5781 83.8407 94.3096 83.8407 94.0371C83.289 94.2543 82.6245 94.1088 82.202 93.6826C81.7795 93.2563 81.6216 92.5678 81.8144 91.9879C82.0359 91.3219 82.6471 90.8773 83.2747 90.6129C83.9022 90.3486 84.579 90.2174 85.1964 89.9244C86.5049 89.3035 87.4114 88.0125 88.0287 86.6601C88.4615 85.7113 88.7834 84.6252 88.4902 83.6232Z" fill="#263238"/>
  <path d="M83.8246 93.6169C83.8451 93.6087 83.9538 93.8198 84.122 94.1763C84.2902 94.5329 84.5158 95.0391 84.766 95.6169L84.8132 95.7276L84.6922 95.7378C84.5035 95.7542 84.3128 95.7706 84.1159 95.787C83.72 95.8136 83.3898 95.8608 83.0084 95.8567C82.9468 95.8464 82.8812 95.7911 82.8627 95.7276C82.8422 95.6661 82.8484 95.6149 82.8545 95.5698C82.871 95.4817 82.8915 95.4141 82.9079 95.3403L83.0084 94.9386C83.1335 94.4489 83.2237 94.1497 83.2463 94.1559C83.2709 94.162 83.2237 94.4714 83.1294 94.9673L83.0514 95.3731C83.0227 95.5104 82.9735 95.7153 83.0473 95.6989C83.3283 95.6866 83.7323 95.6395 84.1036 95.6128C84.3004 95.5964 84.4912 95.5821 84.6799 95.5677L84.6081 95.6886C84.3661 95.1067 84.161 94.5923 84.0195 94.2235C83.88 93.8505 83.8062 93.6251 83.8246 93.6169Z" fill="#E8505B"/>
  <path d="M64.4327 141.277L89.5525 140.51L100.478 183.154L98.4659 232.069H85.1697L86.8166 184.195L77.0992 154.51L78.5964 233.967L65.1731 234.166L63.76 159.479C63.7005 157.404 63.0175 152.719 63.2718 150.662L64.4327 141.277Z" fill="#263238"/>
  <path d="M80.4465 155.113C80.4403 155.152 79.9707 155.129 79.2139 155.039C78.4591 154.951 77.4193 154.791 76.279 154.562C75.1407 154.332 74.1194 154.078 73.3892 153.867C72.657 153.656 72.214 153.498 72.2243 153.459C72.2469 153.377 74.0701 153.82 76.3385 154.273C78.6027 154.732 80.4568 155.029 80.4465 155.113Z" fill="#455A64"/>
  <path d="M91.6214 229.537C95.3344 229.537 98.3444 229.47 98.3444 229.389C98.3444 229.308 95.3344 229.241 91.6214 229.241C87.9084 229.241 84.8984 229.308 84.8984 229.389C84.8984 229.47 87.9084 229.537 91.6214 229.537Z" fill="#455A64"/>
  <path d="M71.9551 232.051C75.557 232.051 78.477 231.985 78.477 231.903C78.477 231.822 75.557 231.756 71.9551 231.756C68.3531 231.756 65.4331 231.822 65.4331 231.903C65.4331 231.985 68.3531 232.051 71.9551 232.051Z" fill="#455A64"/>
  <path d="M76.7485 231.701C76.6664 231.703 76.3137 214.34 75.9609 192.926C75.6061 171.504 75.3866 154.143 75.4666 154.141C75.5487 154.139 75.9014 171.498 76.2562 192.92C76.609 214.334 76.8285 231.698 76.7485 231.701Z" fill="#455A64"/>
  <path d="M96.5587 229.389C96.5546 229.389 96.5525 229.311 96.5525 229.158C96.5546 228.992 96.5607 228.766 96.5648 228.479C96.5833 227.867 96.6079 226.992 96.6407 225.873C96.7207 223.594 96.8335 220.324 96.973 216.289C97.2827 208.184 97.7113 197.014 98.183 184.676C98.1871 184.561 98.1912 184.449 98.1953 184.344L98.1994 184.385C95.2215 172.473 92.5307 161.709 90.5802 153.902C89.6224 150.014 88.8472 146.863 88.3078 144.668C88.0494 143.588 87.8463 142.746 87.7048 142.156C87.6412 141.879 87.592 141.662 87.5551 141.5C87.5223 141.353 87.5079 141.277 87.5141 141.275C87.5182 141.273 87.5428 141.348 87.5838 141.494C87.6269 141.654 87.6864 141.869 87.7623 142.141C87.9161 142.728 88.1376 143.568 88.4186 144.641C88.9805 146.83 89.7865 149.973 90.7833 153.853C92.7563 161.652 95.4758 172.412 98.4866 184.313L98.4927 184.334V184.356C98.4886 184.461 98.4845 184.576 98.4804 184.688C97.9738 197.024 97.5165 208.195 97.1842 216.297C97.0038 220.33 96.8602 223.598 96.7576 225.877C96.7002 226.996 96.6571 227.869 96.6264 228.481C96.61 228.768 96.5956 228.992 96.5854 229.158C96.571 229.311 96.5628 229.389 96.5587 229.389Z" fill="#455A64"/>
  <path d="M92.2245 183.348C92.2388 183.428 90.9221 183.721 89.2875 184.002C88.0652 184.213 87.011 184.356 86.5495 184.381V184.266C86.7013 184.307 86.7854 184.34 86.7813 184.361C86.7792 184.381 86.689 184.387 86.5311 184.381L86.1865 184.367L86.529 184.266C86.972 184.137 88.0139 183.92 89.2363 183.711C90.8729 183.43 92.2101 183.268 92.2245 183.348Z" fill="#455A64"/>
  <path d="M91.9703 184.975C91.96 185.057 90.7787 184.967 89.3267 184.854C87.8725 184.74 86.6933 184.647 86.6953 184.563C86.6974 184.484 87.8869 184.445 89.3492 184.559C90.8115 184.674 91.9805 184.898 91.9703 184.975Z" fill="#455A64"/>
  <path opacity="0.2" d="M64.3198 142.178C64.9269 143.033 65.7924 143.332 66.7994 143.496C67.8064 143.66 68.8319 143.551 69.845 143.439C76.328 142.719 83.1987 142.057 89.5504 140.51C81.3303 140.971 72.6507 140.816 64.4306 141.277C64.4306 141.277 64.3608 141.842 64.3444 141.977" fill="black"/>
  <g opacity="0.2">
    <path opacity="0.2" d="M72.7925 153.754L77.4235 171.715L77.0994 154.51L72.7925 153.754Z" fill="black"/>
  </g>
</svg>
